<svg width="1600" height="1000" viewBox="0 0 1600 1000" xmlns="http://www.w3.org/2000/svg">
  <defs>
    <radialGradient id="glow" cx="50%" cy="46%" r="55%">
      <stop offset="0%" stop-color="#ff7a59" stop-opacity="0.55"/>
      <stop offset="55%" stop-color="#ff5a3c" stop-opacity="0.22"/>
      <stop offset="100%" stop-color="#160b08" stop-opacity="0"/>
    </radialGradient>
    <linearGradient id="bunTop" x1="0" y1="0" x2="0" y2="1">
      <stop offset="0%" stop-color="#ffcf99"/>
      <stop offset="100%" stop-color="#ff9e43"/>
    </linearGradient>
    <linearGradient id="patty" x1="0" y1="0" x2="0" y2="1">
      <stop offset="0%" stop-color="#7a3a22"/>
      <stop offset="60%" stop-color="#5a2816"/>
      <stop offset="100%" stop-color="#3e1a0d"/>
    </linearGradient>
    <linearGradient id="cheese" x1="0" y1="0" x2="0" y2="1">
      <stop offset="0%" stop-color="#ffd35e"/>
      <stop offset="100%" stop-color="#f2a93b"/>
    </linearGradient>
    <linearGradient id="bunBottom" x1="0" y1="0" x2="0" y2="1">
      <stop offset="0%" stop-color="#ff9e43"/>
      <stop offset="100%" stop-color="#e0812c"/>
    </linearGradient>
    <linearGradient id="lettuce" x1="0" y1="0" x2="0" y2="1">
      <stop offset="0%" stop-color="#6fe3a0"/>
      <stop offset="100%" stop-color="#2fd598"/>
    </linearGradient>
    <linearGradient id="tomato" x1="0" y1="0" x2="0" y2="1">
      <stop offset="0%" stop-color="#ff7a59"/>
      <stop offset="100%" stop-color="#ef4527"/>
    </linearGradient>
    <filter id="soft" x="-30%" y="-30%" width="160%" height="160%">
      <feGaussianBlur stdDeviation="18"/>
    </filter>
    <filter id="drop" x="-40%" y="-40%" width="180%" height="180%">
      <feDropShadow dx="0" dy="26" stdDeviation="30" flood-color="#000" flood-opacity="0.55"/>
    </filter>
  </defs>

  <rect width="1600" height="1000" fill="#0c0705"/>
  <rect width="1600" height="1000" fill="url(#glow)"/>

  <ellipse cx="800" cy="790" rx="340" ry="42" fill="#000" opacity="0.55" filter="url(#soft)"/>

  <g filter="url(#drop)" transform="translate(800,500)">
    <path d="M-300,-60 C-300,-150 -180,-210 -60,-210 C60,-210 300,-190 300,-60 L300,0 L-300,0 Z" fill="url(#bunTop)"/>
    <ellipse cx="0" cy="-205" rx="300" ry="58" fill="#ffc37a" opacity="0.9"/>
    <g fill="#c4713a">
      <ellipse cx="-230" cy="-196" rx="16" ry="9"/>
      <ellipse cx="-150" cy="-216" rx="15" ry="8"/>
      <ellipse cx="-55" cy="-208" rx="16" ry="9"/>
      <ellipse cx="45" cy="-218" rx="15" ry="8"/>
      <ellipse cx="150" cy="-210" rx="16" ry="9"/>
      <ellipse cx="225" cy="-192" rx="15" ry="8"/>
    </g>

    <ellipse cx="0" cy="10" rx="290" ry="14" fill="#e0812c"/>
    <ellipse cx="0" cy="40" rx="298" ry="16" fill="#e0a63b"/>

    <path d="M-320,-8 C-250,30 250,45 320,8 C250,25 -250,15 -320,-8 Z" fill="url(#lettuce)" opacity="0.95"/>
    <path d="M-310,20 C-230,52 -120,60 -40,54 C-140,64 -250,44 -310,20 Z" fill="#4fe3ac" opacity="0.8"/>

    <ellipse cx="0" cy="58" rx="292" ry="20" fill="url(#tomato)"/>
    <ellipse cx="0" cy="56" rx="292" ry="16" fill="#ff5f8f" opacity="0.25"/>

    <path d="M12,8 L172,52 L188,44 L28,0 Z M-70,10 L40,58 L56,50 L-54,-2 Z M120,6 L250,44 L264,36 L134,-4 Z" fill="url(#cheese)"/>

    <ellipse cx="0" cy="92" rx="300" ry="34" fill="url(#patty)"/>
    <ellipse cx="0" cy="86" rx="300" ry="30" fill="#6e3219" opacity="0.55"/>
    <g stroke="#2a120a" stroke-width="6" stroke-linecap="round" fill="none" opacity="0.4">
      <path d="M-240,80 q40,16 80,2"/>
      <path d="M-60,86 q40,16 80,2"/>
      <path d="M120,84 q40,16 80,2"/>
    </g>

    <rect x="-300" y="112" width="600" height="34" rx="14" fill="#e0812c"/>
    <rect x="-302" y="112" width="604" height="18" rx="9" fill="#ff9e43" opacity="0.5"/>
    <rect x="-300" y="140" width="600" height="30" rx="10" fill="url(#bunBottom)"/>

    <g opacity="0.9">
      <rect x="-286" y="170" width="572" height="16" rx="8" fill="#e0a63b"/>
      <rect x="-284" y="186" width="560" height="14" rx="7" fill="#d48a2e" opacity="0.7"/>
    </g>
  </g>

  <g fill="#ffcf99" opacity="0.75">
    <circle cx="430" cy="330" r="10"/>
    <circle cx="312" cy="470" r="7"/>
    <circle cx="1240" cy="360" r="9"/>
    <circle cx="1330" cy="520" r="6"/>
    <circle cx="1150" cy="250" r="5"/>
    <circle cx="500" cy="620" r="5"/>
  </g>
</svg>